# xmcd
#
# Track frame offsets:
#	150
#	20056
#	46647
#	63720
#	73820
#	94811
#	108636
#	136639
#	165140
#	184488
#	205064
#	224680
#	251780
#	277221
#	292096
#
# Disc length: 4232 seconds
#
# Revision: 0
# Processed by: cddbd v1.5.2PL0 Copyright (c) Steve Scherf et al.
# Submitted via: EasyCDDAExtractor 12.0.0.1
#
DISCID=f210860f
DTITLE=Los Charros De La Comuna De Lumaco  - Como Dejar De Amarte
DYEAR=1900
DGENRE=
TTITLE0=ando de borrachera
TTITLE1=como dejar de amarte
TTITLE2=ha salido la luna
TTITLE3=el velerito
TTITLE4=traionera
TTITLE5=basurita
TTITLE6=entre golpes y besos
TTITLE7=esta locura
TTITLE8=juntos en la cama
TTITLE9=cicatrices
TTITLE10=arrulo mañanero
TTITLE11=nuevo amor
TTITLE12=la del moño colorado
TTITLE13=que cara mas bonita
TTITLE14=sin tu amor
EXTD=
EXTT0=
EXTT1=
EXTT2=
EXTT3=
EXTT4=
EXTT5=
EXTT6=
EXTT7=
EXTT8=
EXTT9=
EXTT10=
EXTT11=
EXTT12=
EXTT13=
EXTT14=
PLAYORDER=
